<svg xmlns="http://www.w3.org/2000/svg" width="29.704" height="29.906" viewBox="0 0 29.704 29.906"><defs><style>.a{fill:#1ca29a;}</style></defs><g transform="translate(-3 -5.094)"><path class="a" d="M5.47,5.985A4.967,4.967,0,0,0,.53,10.926v3.286a4.967,4.967,0,0,0,4.94,4.941H8.765A4.963,4.963,0,0,0,13.7,14.212V10.926A4.963,4.963,0,0,0,8.765,5.985Zm0,3.293H8.765a1.6,1.6,0,0,1,1.64,1.648v3.286a1.6,1.6,0,0,1-1.64,1.648H5.47a1.609,1.609,0,0,1-1.647-1.648V10.926A1.609,1.609,0,0,1,5.47,9.278Zm0,13.169A4.965,4.965,0,0,0,.53,27.386v3.294a4.967,4.967,0,0,0,4.94,4.941H8.765A4.963,4.963,0,0,0,13.7,30.681V27.386a4.961,4.961,0,0,0-4.935-4.939Zm16.465,0a4.967,4.967,0,0,0-4.942,4.939v3.294a4.968,4.968,0,0,0,4.942,4.941H25.23a4.967,4.967,0,0,0,4.94-4.941V27.386a4.965,4.965,0,0,0-4.94-4.939ZM5.47,25.74H8.765a1.6,1.6,0,0,1,1.64,1.646v3.294a1.6,1.6,0,0,1-1.64,1.646H5.47a1.608,1.608,0,0,1-1.647-1.646V27.386A1.608,1.608,0,0,1,5.47,25.74Zm16.465,0H25.23a1.608,1.608,0,0,1,1.647,1.646v3.294a1.608,1.608,0,0,1-1.647,1.646H21.935a1.608,1.608,0,0,1-1.647-1.646V27.386A1.608,1.608,0,0,1,21.935,25.74Z" transform="translate(2.47 -0.621)"/><path class="a" d="M5.47,5.985A4.967,4.967,0,0,0,.53,10.926v3.286a4.967,4.967,0,0,0,4.94,4.941H8.765A4.963,4.963,0,0,0,13.7,14.212V10.926A4.963,4.963,0,0,0,8.765,5.985Zm0,3.293H8.765a1.6,1.6,0,0,1,1.64,1.648v3.286a1.6,1.6,0,0,1-1.64,1.648H5.47a1.609,1.609,0,0,1-1.647-1.648V10.926A1.609,1.609,0,0,1,5.47,9.278Zm0,13.169A4.965,4.965,0,0,0,.53,27.386v3.294a4.967,4.967,0,0,0,4.94,4.941H8.765A4.963,4.963,0,0,0,13.7,30.681V27.386a4.961,4.961,0,0,0-4.935-4.939Zm16.465,0a4.967,4.967,0,0,0-4.942,4.939v3.294a4.968,4.968,0,0,0,4.942,4.941H25.23a4.967,4.967,0,0,0,4.94-4.941V27.386a4.965,4.965,0,0,0-4.94-4.939ZM5.47,25.74H8.765a1.6,1.6,0,0,1,1.64,1.646v3.294a1.6,1.6,0,0,1-1.64,1.646H5.47a1.608,1.608,0,0,1-1.647-1.646V27.386A1.608,1.608,0,0,1,5.47,25.74Zm16.465,0H25.23a1.608,1.608,0,0,1,1.647,1.646v3.294a1.608,1.608,0,0,1-1.647,1.646H21.935a1.608,1.608,0,0,1-1.647-1.646V27.386A1.608,1.608,0,0,1,21.935,25.74Z" transform="translate(2.47 -0.891)"/><rect class="a" width="9" height="9" transform="translate(22.022 24)"/><rect class="a" width="8" height="8" transform="translate(5 25)"/><path class="a" d="M0,0H9.027V9.027H0Z" transform="matrix(0.998, 0.07, -0.07, 0.998, 5.323, 7.191)"/><path class="a" d="M5.67,20.621A5.166,5.166,0,0,0,.53,25.759v3.427a5.167,5.167,0,0,0,5.14,5.14H9.1a5.163,5.163,0,0,0,5.135-5.14V25.759A5.162,5.162,0,0,0,9.1,20.621Zm0,3.425H9.1a1.667,1.667,0,0,1,1.707,1.713v3.427A1.667,1.667,0,0,1,9.1,30.9H5.67a1.673,1.673,0,0,1-1.713-1.713V25.759A1.673,1.673,0,0,1,5.67,24.046Z" transform="translate(18.47 -15.527)"/></g></svg>