<?xml version="1.0" encoding="utf-8"?>
<!-- Generator: Adobe Illustrator 24.0.2, SVG Export Plug-In . SVG Version: 6.00 Build 0)  -->
<svg version="1.1" id="Ebene_1" xmlns="http://www.w3.org/2000/svg" xmlns:xlink="http://www.w3.org/1999/xlink" x="0px" y="0px"
	 viewBox="0 0 14173.23 14173.23" style="enable-background:new 0 0 14173.23 14173.23;" xml:space="preserve">
<style type="text/css">
	.st0{fill:#3b3b3b;}
	.st1{fill:#ffffff;}
</style>
<g transform="matrix(1, 0, 0, 1, 0, 0)">
	<path id="Path_1498-2" class="st0" d="M7491.49,282.82l6400.68,6400.68c226.58,226.58,226.58,593.93,0,820.51c0,0,0,0,0,0
		L7491.49,13904.7c-226.58,226.58-593.93,226.58-820.51,0c0,0,0,0,0,0L270.3,7504.01c-226.58-226.58-226.58-593.93,0-820.51
		c0,0,0,0,0,0L6670.99,282.82C6897.56,56.25,7264.92,56.25,7491.49,282.82z"/>
</g>
<path id="plus" class="st1" d="M8994.98,6480.78h-1462.7v-1462.7c0-73.44-59.53-132.97-132.97-132.97h-797.84
	c-73.44,0-132.97,59.53-132.97,132.97v1462.7H5005.8c-73.44,0-132.97,59.53-132.97,132.97v797.84
	c-0.12,73.32,59.23,132.85,132.55,132.97c0.14,0,0.28,0,0.43,0h1462.7v1462.7c-0.12,73.32,59.23,132.86,132.55,132.97
	c0.14,0,0.28,0,0.43,0h797.84c73.32,0.12,132.85-59.23,132.97-132.55c0-0.14,0-0.28,0-0.43v-1462.7h1462.7
	c73.32,0.12,132.86-59.23,132.97-132.55c0-0.14,0-0.28,0-0.43v-797.84C9127.96,6540.32,9068.42,6480.78,8994.98,6480.78z"/>
</svg>
