<svg xmlns="http://www.w3.org/2000/svg" viewBox="0 0 91.66 91.67"><defs><style>.cls-1{fill:#3b3b3b;}</style></defs><title>app</title><g id="Ebene_2" data-name="Ebene 2"><g id="Ebene_1-2" data-name="Ebene 1"><path class="cls-1" d="M54.16,0a12.57,12.57,0,0,0-12.5,12.5v25A12.58,12.58,0,0,0,54.16,50h25A12.57,12.57,0,0,0,91.66,37.49v-25A12.56,12.56,0,0,0,79.17,0Zm0,8.33h25a4.08,4.08,0,0,1,4.17,4.17v25a4.08,4.08,0,0,1-4.17,4.17h-25A4.07,4.07,0,0,1,50,37.49v-25A4.07,4.07,0,0,1,54.16,8.33ZM12.5,16.67A12.57,12.57,0,0,0,0,29.17v8.32A12.58,12.58,0,0,0,12.5,50h8.34A12.57,12.57,0,0,0,33.33,37.49V29.17a12.56,12.56,0,0,0-12.49-12.5Zm0,8.33h8.34A4.06,4.06,0,0,1,25,29.17v8.32a4.06,4.06,0,0,1-4.15,4.17H12.5a4.08,4.08,0,0,1-4.17-4.17V29.17A4.08,4.08,0,0,1,12.5,25Zm0,33.33A12.57,12.57,0,0,0,0,70.83v8.34a12.57,12.57,0,0,0,12.5,12.5h8.34a12.56,12.56,0,0,0,12.49-12.5V70.83a12.56,12.56,0,0,0-12.49-12.5Zm41.66,0a12.57,12.57,0,0,0-12.5,12.5v8.34a12.57,12.57,0,0,0,12.5,12.5H62.5A12.57,12.57,0,0,0,75,79.17V70.83a12.57,12.57,0,0,0-12.5-12.5ZM12.5,66.67h8.34A4.05,4.05,0,0,1,25,70.83v8.34a4.06,4.06,0,0,1-4.15,4.17H12.5a4.08,4.08,0,0,1-4.17-4.17V70.83A4.07,4.07,0,0,1,12.5,66.67Zm41.66,0H62.5a4.07,4.07,0,0,1,4.17,4.16v8.34a4.08,4.08,0,0,1-4.17,4.17H54.16A4.07,4.07,0,0,1,50,79.17V70.83A4.06,4.06,0,0,1,54.16,66.67Z"/><rect class="cls-1" x="6.87" y="23.74" width="19.86" height="19.86"/><rect class="cls-1" x="6.87" y="65.07" width="19.86" height="19.86"/><rect class="cls-1" x="48.4" y="65.07" width="19.86" height="19.86"/></g></g></svg>