<?xml version="1.0" encoding="utf-8"?>
<!-- Generator: Adobe Illustrator 24.0.0, SVG Export Plug-In . SVG Version: 6.00 Build 0)  -->
<svg version="1.1" id="Ebene_1" xmlns="http://www.w3.org/2000/svg" xmlns:xlink="http://www.w3.org/1999/xlink" x="0px" y="0px"
	 viewBox="0 0 100 100" style="enable-background:new 0 0 100 100;" xml:space="preserve">
<style type="text/css">
	.st0{fill-rule:evenodd;clip-rule:evenodd;fill:#3B3B3B;}
</style>
<g>
	<path class="st0" d="M37.8,43.3c-15.1,0-27.4,12.3-27.4,27.4c0,6.3,2.1,12.1,5.7,16.8L6.6,98.1h31.2c15.1,0,27.4-12.3,27.4-27.4
		S53,43.3,37.8,43.3z M41,28.6h6v6h-6V28.6z M57,1.9c16.4,0,29.7,13.3,29.7,29.7c0,5.9-1.8,11.7-5.1,16.6l11.8,13H64.8
		c-0.6-1.6-1.3-3.1-2.1-4.6h20.4l-7.4-8.2c4.1-5.3,6.4-10,6.4-16.9C82.1,17.7,70.9,6.5,57,6.5S31.9,17.7,31.9,31.6
		c0,3.9,0.9,7.5,2.4,10.8c-1.6,0.2-3.1,0.5-4.6,0.9c-1.6-3.6-2.4-7.6-2.4-11.7C27.4,15.2,40.6,1.9,57,1.9z M54,28.6h6v6h-6V28.6z
		 M67,28.6h6v6h-6V28.6z M21.8,67.7h6v6h-6V67.7z M34.8,67.7h6v6h-6V67.7z M47.8,67.7h6v6h-6V67.7z"/>
</g>
</svg>
