<svg xmlns="http://www.w3.org/2000/svg" width="24" height="24" viewBox="0 0 24 24"><defs><style>.a{fill:#3b3b3b;}</style></defs><path class="a" d="M14.5,2.5a12,12,0,1,0,12,12A12.011,12.011,0,0,0,14.5,2.5Zm1.465,14.122V19.3a.841.841,0,0,1-.834.834H13.868a.841.841,0,0,1-.834-.834V16.622a.625.625,0,0,0-.632-.632H9.725a.841.841,0,0,1-.834-.834V13.894a.841.841,0,0,1,.834-.834H12.4a.625.625,0,0,0,.632-.632V9.7a.841.841,0,0,1,.834-.834h1.263a.841.841,0,0,1,.834.834v2.678a.625.625,0,0,0,.632.632h2.678a.841.841,0,0,1,.834.834v1.263a.841.841,0,0,1-.834.834H16.6A.708.708,0,0,0,15.965,16.622Z" transform="translate(-2.5 -2.5)"/></svg>