<svg xmlns="http://www.w3.org/2000/svg" width="23.518" height="19.402" viewBox="0 0 23.518 19.402"><defs><style>.a{fill:#fff;fill-rule:evenodd;}</style></defs><path class="a" d="M10,18.764V34.638c0,1.481.3,1.764,1.764,1.764h19.99c1.452,0,1.764-.27,1.764-1.764V18.764c0-1.446-.277-1.764-1.764-1.764H11.764C10.305,17,10,17.253,10,18.764ZM30.748,32.286H12.781c1.964-2.863,5.456-7.637,6.343-7.637.859,0,3.775,3.857,5.092,5.215,0,0,1.694-2.263,2.581-2.263C27.7,27.6,30.719,32.263,30.748,32.286Zm-5.279-9.995a2.169,2.169,0,1,1,2.169,2.169A2.167,2.167,0,0,1,25.469,22.291Z" transform="translate(-10 -17)"/></svg>