<?xml version="1.0" encoding="utf-8"?>
<!-- Generator: Adobe Illustrator 23.0.6, SVG Export Plug-In . SVG Version: 6.00 Build 0)  -->
<svg version="1.1" id="Ebene_1" 
	xmlns="http://www.w3.org/2000/svg" 
	xmlns:xlink="http://www.w3.org/1999/xlink" x="0px" y="0px" viewBox="0 0 14173.23 14173.23" style="enable-background:new 0 0 14173.23 14173.23;" xml:space="preserve">
	<style type="text/css">
	.st0{fill:none;}
	.st1{fill:#3b3b3b;}
	</style>
	<g id="Symbol_209_1">
		<rect id="Rechteck_693" x="-41.02" y="150" class="st0" width="13298.69" height="13298.69"/>
		<path id="Pfad_208" class="st1" d="M13855.87,12793.01l-2752.85-2877.29c771.05-1064.94,1180.41-2349.01,1167.97-3663.73
		c91.13-3278.07-2492.4-6009.34-5770.47-6100.47c-23.33-0.65-46.67-1.16-70.01-1.53C3151.6,202.79,536.31,2903.66,589.1,6182.57
		c0.38,23.57,0.9,47.13,1.56,70.69c-91.83,3278.05,2491.12,6009.88,5769.17,6101.7c23.56,0.66,47.12,1.18,70.69,1.56
		c1273.35,6.97,2510.41-423.89,3503.91-1220.4l2752.85,2877.29L13855.87,12793.01z M2259.55,6253.26
		c-72.77-2333.47,1759.89-4284.12,4093.37-4356.89c25.23-0.79,50.46-1.35,75.7-1.68c2334.4,30.96,4201.71,1948.47,4170.75,4282.87
		c-0.33,25.24-0.89,50.47-1.68,75.7c72.77,2333.47-1759.89,4284.12-4093.37,4356.89c-25.23,0.79-50.46,1.35-75.7,1.68
		c-2334.4-30.96-4201.71-1948.47-4170.75-4282.87C2258.2,6303.72,2258.76,6278.49,2259.55,6253.26z"/>
	</g>
	<path id="Rechteck_1474" class="st1" d="M10899.62,9435.65l3073.11,3179.23c242.46,250.83,235.67,650.73-15.16,893.19
	l-454.18,439.02c-250.83,242.46-650.73,235.67-893.19-15.16L9537.1,10752.7c-242.46-250.83-235.67-650.73,15.16-893.19
	l454.18-439.02C10257.27,9178.03,10657.16,9184.82,10899.62,9435.65z"/>
</svg>
