<?xml version="1.0" encoding="utf-8"?>
<!-- Generator: Adobe Illustrator 24.0.0, SVG Export Plug-In . SVG Version: 6.00 Build 0)  -->
<svg version="1.1" xmlns="http://www.w3.org/2000/svg" xmlns:xlink="http://www.w3.org/1999/xlink" x="0px" y="0px"
	 viewBox="0 0 100 100" style="enable-background:new 0 0 100 100;" xml:space="preserve">
<style type="text/css">
	.st0{fill:#3B3B3B;}
</style>
<g id="Ebene_2">
</g>
<g id="Ebene_1">
	<g>
		<path class="st0" d="M75.5,60.4L96,43.5c2.9-2.4,1.4-7.1-2.4-7.3l-26.4-1.6c-1.6-0.1-3-1.1-3.6-2.6L53.9,7.2
			c-1.4-3.5-6.3-3.5-7.7,0l-9.7,24.7c-0.6,1.5-2,2.5-3.6,2.6L6.4,36.1C2.6,36.3,1.1,41,4,43.4l20.5,16.8c1.2,1,1.8,2.7,1.4,4.2
			l-6.7,25.7c-0.9,3.6,3,6.5,6.2,4.5l22.3-14.3c1.4-0.9,3.1-0.9,4.4,0l22.4,14.3c3.2,2,7.1-0.9,6.2-4.5L74,64.5
			C73.7,63,74.2,61.4,75.5,60.4z"/>
	</g>
</g>
</svg>
